<svg width="120" height="120" viewBox="0 0 120 120" fill="none" xmlns="http://www.w3.org/2000/svg">
  <rect width="120" height="120" rx="28" fill="url(#bg)"/>
  <rect x="28" y="22" width="64" height="76" rx="8" fill="white" fill-opacity="0.15"/>
  <rect x="32" y="26" width="56" height="68" rx="5" fill="white" fill-opacity="0.95"/>
  <path d="M32 78 L50 54 L62 68 L70 58 L88 78 L88 89 C88 91.76 85.76 94 83 94 L37 94 C34.24 94 32 91.76 32 89 Z" fill="url(#s1)"/>
  <path d="M62 68 L70 58 L88 78 L88 89 C88 91.76 85.76 94 83 94 L60 94 Z" fill="url(#s2)"/>
  <circle cx="72" cy="42" r="9" fill="url(#sun)"/>
  <path d="M96 16 L98 22 L104 24 L98 26 L96 32 L94 26 L88 24 L94 22 Z" fill="white" fill-opacity="0.9"/>
  <path d="M18 72 L19.5 76 L24 77.5 L19.5 79 L18 83 L16.5 79 L12 77.5 L16.5 76 Z" fill="white" fill-opacity="0.6"/>
  <defs>
    <linearGradient id="bg" x1="0" y1="0" x2="120" y2="120" gradientUnits="userSpaceOnUse">
      <stop stop-color="#1a1a2e"/><stop offset="1" stop-color="#16213e"/>
    </linearGradient>
    <linearGradient id="s1" x1="32" y1="54" x2="32" y2="94" gradientUnits="userSpaceOnUse">
      <stop stop-color="#f43f5e"/><stop offset="1" stop-color="#e11d48"/>
    </linearGradient>
    <linearGradient id="s2" x1="62" y1="58" x2="88" y2="94" gradientUnits="userSpaceOnUse">
      <stop stop-color="#fb7185"/><stop offset="1" stop-color="#f43f5e"/>
    </linearGradient>
    <linearGradient id="sun" x1="63" y1="33" x2="81" y2="51" gradientUnits="userSpaceOnUse">
      <stop stop-color="#fbbf24"/><stop offset="1" stop-color="#f59e0b"/>
    </linearGradient>
  </defs>
</svg>
